<?xml version="1.0" standalone="no"?><!DOCTYPE svg PUBLIC "-//W3C//DTD SVG 1.1//EN" "http://www.w3.org/Graphics/SVG/1.1/DTD/svg11.dtd"><svg t="1638015776231" class="icon" viewBox="0 0 1024 1024" version="1.1" xmlns="http://www.w3.org/2000/svg" p-id="1871" xmlns:xlink="http://www.w3.org/1999/xlink" width="200" height="200"><defs><style type="text/css"></style></defs><path d="M834.48 333.43h-35.59c-29.42 0-53.38 23.95-53.38 53.38v284.65c0 29.45 23.95 53.38 53.38 53.38h35.59c29.42 0 53.38-23.93 53.38-53.38V386.81c0-29.43-23.95-53.38-53.38-53.38z" fill="#656D78" p-id="1872"></path><path d="M861.17 217.77c-14.74 0-26.69 11.96-26.69 26.69v142.35h53.38V244.46c0-14.73-11.95-26.69-26.69-26.69z" fill="#ED5564" p-id="1873"></path><path d="M887.86 487.62V386.81c0-29.43-23.95-53.38-53.38-53.38h-35.59c-29.42 0-53.38 23.95-53.38 53.38v5.92l142.35 94.89z" fill="#434A54" p-id="1874"></path><path d="M229.57 333.43h-35.59c-29.42 0-53.38 23.95-53.38 53.38v284.65c0 29.45 23.95 53.38 53.38 53.38h35.59c29.42 0 53.38-23.93 53.38-53.38V386.81c0-29.43-23.96-53.38-53.38-53.38z" fill="#656D78" p-id="1875"></path><path d="M282.95 392.73v-5.92c0-29.43-23.95-53.38-53.38-53.38h-35.59c-29.42 0-53.38 23.95-53.38 53.38v100.81l142.35-94.89z" fill="#FFCE54" p-id="1876"></path><path d="M425.3 191.14c-1.41 0-2.84-0.16-4.28-0.52-9.54-2.35-15.36-12.01-13.03-21.55 0.54-2.19 5.67-21.89 20.71-41.98 20.9-27.97 50.48-42.74 85.54-42.74 35.05 0 64.63 14.78 85.54 42.74 15.04 20.09 20.17 39.8 20.71 41.98 2.33 9.54-3.49 19.18-13.04 21.53-9.54 2.35-19.17-3.49-21.52-13.03-0.58-2.3-15.39-57.62-71.68-57.62-56.28 0-71.1 55.33-71.7 57.7-2.01 8.09-9.27 13.49-17.25 13.49z" fill="#434A54" p-id="1877"></path><path d="M763.32 244.46H265.14c-9.83 0-17.79 7.97-17.79 17.8v557.49c0 9.83 7.96 17.78 17.79 17.78h498.18c9.83 0 17.79-7.95 17.79-17.78V262.26c0-9.83-7.96-17.8-17.79-17.8z" fill="#8CC153" p-id="1878"></path><path d="M727.73 155.51h-427c-29.42 0-53.38 23.95-53.38 53.38v284.68c0 29.42 23.95 53.38 53.38 53.38h427c29.42 0 53.38-23.95 53.38-53.38V208.88c0-29.42-23.95-53.37-53.38-53.37z" fill="#A0D468" p-id="1879"></path><path d="M318.52 155.51v497.52c0 6.67 3.71 12.74 9.62 15.82l35.59 18.43c2.55 1.33 5.37 1.98 8.17 1.98 2.82 0 5.62-0.65 8.19-1.98l35.59-18.43c5.9-3.07 9.6-9.15 9.6-15.82V155.51H318.52z" fill="#FFCE54" p-id="1880"></path><path d="M318.52 546.93h106.75v53.38H318.52z" fill="#434A54" p-id="1881"></path><path d="M745.52 724.83H282.95c-29.44 0-53.38 23.95-53.38 53.38v106.75c0 29.45 23.94 53.38 53.38 53.38h462.57c29.44 0 53.38-23.93 53.38-53.38V778.21c-0.01-29.42-23.94-53.38-53.38-53.38z" fill="#A0D468" p-id="1882"></path><path d="M692.14 902.76c-9.83 0-17.79 7.97-17.79 17.8v17.77h35.59v-17.77c0.01-9.83-7.97-17.8-17.8-17.8zM620.98 902.76c-9.83 0-17.79 7.97-17.79 17.8v17.77h35.57v-17.77c0.01-9.83-7.95-17.8-17.78-17.8zM549.82 902.76c-9.83 0-17.8 7.97-17.8 17.8v17.77h35.59v-17.77c0-9.83-7.96-17.8-17.79-17.8zM478.64 902.76c-9.83 0-17.79 7.97-17.79 17.8v17.77h35.59v-17.77c0.01-9.83-7.97-17.8-17.8-17.8zM407.48 902.76c-9.83 0-17.79 7.97-17.79 17.8v17.77h35.57v-17.77c0.01-9.83-7.95-17.8-17.78-17.8zM336.32 902.76c-9.83 0-17.8 7.97-17.8 17.8v17.77h35.59v-17.77c0-9.83-7.96-17.8-17.79-17.8z" fill="#8CC153" p-id="1883"></path><path d="M603.2 155.51v497.52c0 6.67 3.7 12.74 9.6 15.82l35.59 18.43c2.57 1.33 5.37 1.98 8.18 1.98 2.8 0 5.62-0.65 8.17-1.98l35.59-18.43a17.83 17.83 0 0 0 9.62-15.82V155.51H603.2z" fill="#FFCE54" p-id="1884"></path><path d="M603.2 546.93h106.75v53.38H603.2zM674.36 778.21c0 9.85 7.96 17.8 17.79 17.8s17.8-7.95 17.8-17.8v-53.38h-35.59v53.38z" fill="#434A54" p-id="1885"></path></svg>