<?xml version="1.0" standalone="no"?><!DOCTYPE svg PUBLIC "-//W3C//DTD SVG 1.1//EN" "http://www.w3.org/Graphics/SVG/1.1/DTD/svg11.dtd"><svg t="1638171753931" class="icon" viewBox="0 0 1024 1024" version="1.1" xmlns="http://www.w3.org/2000/svg" p-id="3617" xmlns:xlink="http://www.w3.org/1999/xlink" width="200" height="200"><defs><style type="text/css"></style></defs><path d="M817.8 362.9L644.3 166.8l12.9-11.4c4.9-4.4 12.6-3.9 16.9 1l157.6 178.2c4.4 4.9 3.9 12.6-1 16.9l-12.9 11.4z" fill="#FE73B2" p-id="3618"></path><path d="M645.266 165.908L819.2 362.52l-36.551 32.335-173.933-196.612z" fill="#C6C6C6" p-id="3619"></path><path d="M608.994 198.079l58.309 65.912L332.05 560.57l-58.31-65.913z" fill="#446FD8" p-id="3620"></path><path d="M666.464 263.625l58.309 65.912-335.253 296.58-58.309-65.913z" fill="#557EE6" p-id="3621"></path><path d="M724.37 328.859l58.309 65.912-335.253 296.58-58.309-65.912z" fill="#3259B6" p-id="3622"></path><path d="M190.2 743.8l83.5-249.2 173.9 196.6z" fill="#FFC732" p-id="3623"></path><path d="M189.8 744.1l16.6-48.6 33.6 38.1z" fill="#557FE5" p-id="3624"></path></svg>